<svg xmlns="http://www.w3.org/2000/svg" width="900" height="122" viewBox="0 0 900 122" fill="none" role="img"><title>Conquistas desbloqueadas</title><style>@keyframes tw{0%,100%{opacity:.15}50%{opacity:1}}@keyframes blink{0%,49%{opacity:1}50%,100%{opacity:0}}@keyframes pulse{0%,100%{opacity:.55}50%{opacity:1}}@keyframes bob{0%,100%{transform:translateY(0)}50%{transform:translateY(-5px)}}.blink{animation:blink 1.1s steps(1) infinite}.toast{opacity:0;animation:toast 25.2s infinite both}@keyframes toast{0%{opacity:0;transform:translateY(22px)}1.39%{opacity:1;transform:translateY(0)}12.5%{opacity:1;transform:translateY(0)}14.29%{opacity:0;transform:translateY(-22px)}100%{opacity:0;transform:translateY(-22px)}}.shine{animation:shine 25.2s infinite both}@keyframes shine{0%,1.98%{transform:translateX(0)}6.35%,100%{transform:translateX(760px)}}.ring{transform-box:fill-box;transform-origin:center;animation:spin 2.4s linear infinite}@keyframes spin{to{transform:rotate(360deg)}}.spark{animation:tw 1.6s ease-in-out infinite}</style><defs>
      <linearGradient id="edge" x1="0" x2="1"><stop offset="0" stop-color="#fbbf24"/><stop offset=".5" stop-color="#7f2ccb"/><stop offset="1" stop-color="#22d3ee"/></linearGradient>
      <radialGradient id="gold" cx=".35" cy=".3"><stop offset="0" stop-color="#fff7cc"/><stop offset=".5" stop-color="#fbbf24"/><stop offset="1" stop-color="#b45309"/></radialGradient>
      <linearGradient id="shineG" x1="0" x2="1"><stop offset="0" stop-color="#fff" stop-opacity="0"/><stop offset=".5" stop-color="#fff" stop-opacity=".16"/><stop offset="1" stop-color="#fff" stop-opacity="0"/></linearGradient>
      <clipPath id="pill"><rect x="150" y="19" width="600" height="84" rx="42"/></clipPath>
    </defs>
    <g class="toast" style="animation-delay:0s">
      <rect x="150" y="19" width="600" height="84" rx="42" fill="#120a1f" stroke="url(#edge)" stroke-width="1.8"/>
      <g clip-path="url(#pill)"><rect x="80" y="19" width="70" height="84" fill="url(#shineG)" transform="skewX(-20)" class="shine" style="animation-delay:0s"/></g>
      <circle cx="194" cy="61" r="30" fill="url(#gold)"/>
      <circle cx="194" cy="61" r="34" stroke="#fde047" stroke-width="2" stroke-dasharray="30 184" stroke-linecap="round" class="ring"/>
      <g transform="translate(194 62)"><g fill="#2a1a00">
      <path d="M-11-12H11V-4C11 5 5 9 0 9S-11 5-11-4Z"/>
      <path d="M-11-9H-17C-17-1-13 2-9 2M11-9H17C17-1 13 2 9 2" stroke="#2a1a00" stroke-width="3" fill="none"/>
      <rect x="-2.5" y="8" width="5" height="6"/><rect x="-9" y="13" width="18" height="4.5" rx="1.5"/></g></g>
      <text x="240" y="47" font-family="ui-monospace, 'Cascadia Code', 'SF Mono', Consolas, Menlo, 'DejaVu Sans Mono', monospace" font-size="10.5" font-weight="700" letter-spacing="3" fill="#fbbf24">CONQUISTA DESBLOQUEADA</text>
      <text x="240" y="72" font-family="'Segoe UI', system-ui, -apple-system, 'Helvetica Neue', Ubuntu, Arial, sans-serif" font-size="19" font-weight="700" fill="#fff">Fundou a RDL Development</text>
      <text x="240" y="91" font-family="'Segoe UI', system-ui, -apple-system, 'Helvetica Neue', Ubuntu, Arial, sans-serif" font-size="12.5" fill="#a1a1aa">Startup de software com Daniel e Luiz</text>
      <g transform="translate(694 61)"><circle r="17" fill="#1f1530" stroke="#4c2a7a"/><text y="5" text-anchor="middle" font-family="ui-monospace, 'Cascadia Code', 'SF Mono', Consolas, Menlo, 'DejaVu Sans Mono', monospace" font-size="13" font-weight="700" fill="#fde047">G</text></g>
      <text x="670" y="66" text-anchor="end" font-family="ui-monospace, 'Cascadia Code', 'SF Mono', Consolas, Menlo, 'DejaVu Sans Mono', monospace" font-size="15" font-weight="700" fill="#fff">100</text>
    </g><g class="toast" style="animation-delay:3.6s">
      <rect x="150" y="19" width="600" height="84" rx="42" fill="#120a1f" stroke="url(#edge)" stroke-width="1.8"/>
      <g clip-path="url(#pill)"><rect x="80" y="19" width="70" height="84" fill="url(#shineG)" transform="skewX(-20)" class="shine" style="animation-delay:3.6s"/></g>
      <circle cx="194" cy="61" r="30" fill="url(#gold)"/>
      <circle cx="194" cy="61" r="34" stroke="#fde047" stroke-width="2" stroke-dasharray="30 184" stroke-linecap="round" class="ring"/>
      <g transform="translate(194 62)"><g fill="#2a1a00">
      <path d="M-11-12H11V-4C11 5 5 9 0 9S-11 5-11-4Z"/>
      <path d="M-11-9H-17C-17-1-13 2-9 2M11-9H17C17-1 13 2 9 2" stroke="#2a1a00" stroke-width="3" fill="none"/>
      <rect x="-2.5" y="8" width="5" height="6"/><rect x="-9" y="13" width="18" height="4.5" rx="1.5"/></g></g>
      <text x="240" y="47" font-family="ui-monospace, 'Cascadia Code', 'SF Mono', Consolas, Menlo, 'DejaVu Sans Mono', monospace" font-size="10.5" font-weight="700" letter-spacing="3" fill="#fbbf24">CONQUISTA DESBLOQUEADA</text>
      <text x="240" y="72" font-family="'Segoe UI', system-ui, -apple-system, 'Helvetica Neue', Ubuntu, Arial, sans-serif" font-size="19" font-weight="700" fill="#fff">Formado em ADS — IFG</text>
      <text x="240" y="91" font-family="'Segoe UI', system-ui, -apple-system, 'Helvetica Neue', Ubuntu, Arial, sans-serif" font-size="12.5" fill="#a1a1aa">Análise e Desenvolvimento de Sistemas</text>
      <g transform="translate(694 61)"><circle r="17" fill="#1f1530" stroke="#4c2a7a"/><text y="5" text-anchor="middle" font-family="ui-monospace, 'Cascadia Code', 'SF Mono', Consolas, Menlo, 'DejaVu Sans Mono', monospace" font-size="13" font-weight="700" fill="#fde047">G</text></g>
      <text x="670" y="66" text-anchor="end" font-family="ui-monospace, 'Cascadia Code', 'SF Mono', Consolas, Menlo, 'DejaVu Sans Mono', monospace" font-size="15" font-weight="700" fill="#fff">100</text>
    </g><g class="toast" style="animation-delay:7.2s">
      <rect x="150" y="19" width="600" height="84" rx="42" fill="#120a1f" stroke="url(#edge)" stroke-width="1.8"/>
      <g clip-path="url(#pill)"><rect x="80" y="19" width="70" height="84" fill="url(#shineG)" transform="skewX(-20)" class="shine" style="animation-delay:7.2s"/></g>
      <circle cx="194" cy="61" r="30" fill="url(#gold)"/>
      <circle cx="194" cy="61" r="34" stroke="#fde047" stroke-width="2" stroke-dasharray="30 184" stroke-linecap="round" class="ring"/>
      <g transform="translate(194 62)"><g fill="#2a1a00">
      <path d="M-11-12H11V-4C11 5 5 9 0 9S-11 5-11-4Z"/>
      <path d="M-11-9H-17C-17-1-13 2-9 2M11-9H17C17-1 13 2 9 2" stroke="#2a1a00" stroke-width="3" fill="none"/>
      <rect x="-2.5" y="8" width="5" height="6"/><rect x="-9" y="13" width="18" height="4.5" rx="1.5"/></g></g>
      <text x="240" y="47" font-family="ui-monospace, 'Cascadia Code', 'SF Mono', Consolas, Menlo, 'DejaVu Sans Mono', monospace" font-size="10.5" font-weight="700" letter-spacing="3" fill="#fbbf24">CONQUISTA DESBLOQUEADA</text>
      <text x="240" y="72" font-family="'Segoe UI', system-ui, -apple-system, 'Helvetica Neue', Ubuntu, Arial, sans-serif" font-size="19" font-weight="700" fill="#fff">Primeiro site de cliente no ar</text>
      <text x="240" y="91" font-family="'Segoe UI', system-ui, -apple-system, 'Helvetica Neue', Ubuntu, Arial, sans-serif" font-size="12.5" fill="#a1a1aa">Gabriela Decorações · 18 anos de mercado</text>
      <g transform="translate(694 61)"><circle r="17" fill="#1f1530" stroke="#4c2a7a"/><text y="5" text-anchor="middle" font-family="ui-monospace, 'Cascadia Code', 'SF Mono', Consolas, Menlo, 'DejaVu Sans Mono', monospace" font-size="13" font-weight="700" fill="#fde047">G</text></g>
      <text x="670" y="66" text-anchor="end" font-family="ui-monospace, 'Cascadia Code', 'SF Mono', Consolas, Menlo, 'DejaVu Sans Mono', monospace" font-size="15" font-weight="700" fill="#fff">100</text>
    </g><g class="toast" style="animation-delay:10.8s">
      <rect x="150" y="19" width="600" height="84" rx="42" fill="#120a1f" stroke="url(#edge)" stroke-width="1.8"/>
      <g clip-path="url(#pill)"><rect x="80" y="19" width="70" height="84" fill="url(#shineG)" transform="skewX(-20)" class="shine" style="animation-delay:10.8s"/></g>
      <circle cx="194" cy="61" r="30" fill="url(#gold)"/>
      <circle cx="194" cy="61" r="34" stroke="#fde047" stroke-width="2" stroke-dasharray="30 184" stroke-linecap="round" class="ring"/>
      <g transform="translate(194 62)"><g fill="#2a1a00">
      <path d="M-11-12H11V-4C11 5 5 9 0 9S-11 5-11-4Z"/>
      <path d="M-11-9H-17C-17-1-13 2-9 2M11-9H17C17-1 13 2 9 2" stroke="#2a1a00" stroke-width="3" fill="none"/>
      <rect x="-2.5" y="8" width="5" height="6"/><rect x="-9" y="13" width="18" height="4.5" rx="1.5"/></g></g>
      <text x="240" y="47" font-family="ui-monospace, 'Cascadia Code', 'SF Mono', Consolas, Menlo, 'DejaVu Sans Mono', monospace" font-size="10.5" font-weight="700" letter-spacing="3" fill="#fbbf24">CONQUISTA DESBLOQUEADA</text>
      <text x="240" y="72" font-family="'Segoe UI', system-ui, -apple-system, 'Helvetica Neue', Ubuntu, Arial, sans-serif" font-size="19" font-weight="700" fill="#fff">Pix automático em produção</text>
      <text x="240" y="91" font-family="'Segoe UI', system-ui, -apple-system, 'Helvetica Neue', Ubuntu, Arial, sans-serif" font-size="12.5" fill="#a1a1aa">Candangos Shop · Supabase Edge Functions</text>
      <g transform="translate(694 61)"><circle r="17" fill="#1f1530" stroke="#4c2a7a"/><text y="5" text-anchor="middle" font-family="ui-monospace, 'Cascadia Code', 'SF Mono', Consolas, Menlo, 'DejaVu Sans Mono', monospace" font-size="13" font-weight="700" fill="#fde047">G</text></g>
      <text x="670" y="66" text-anchor="end" font-family="ui-monospace, 'Cascadia Code', 'SF Mono', Consolas, Menlo, 'DejaVu Sans Mono', monospace" font-size="15" font-weight="700" fill="#fff">100</text>
    </g><g class="toast" style="animation-delay:14.4s">
      <rect x="150" y="19" width="600" height="84" rx="42" fill="#120a1f" stroke="url(#edge)" stroke-width="1.8"/>
      <g clip-path="url(#pill)"><rect x="80" y="19" width="70" height="84" fill="url(#shineG)" transform="skewX(-20)" class="shine" style="animation-delay:14.4s"/></g>
      <circle cx="194" cy="61" r="30" fill="url(#gold)"/>
      <circle cx="194" cy="61" r="34" stroke="#fde047" stroke-width="2" stroke-dasharray="30 184" stroke-linecap="round" class="ring"/>
      <g transform="translate(194 62)"><g fill="#2a1a00">
      <path d="M-11-12H11V-4C11 5 5 9 0 9S-11 5-11-4Z"/>
      <path d="M-11-9H-17C-17-1-13 2-9 2M11-9H17C17-1 13 2 9 2" stroke="#2a1a00" stroke-width="3" fill="none"/>
      <rect x="-2.5" y="8" width="5" height="6"/><rect x="-9" y="13" width="18" height="4.5" rx="1.5"/></g></g>
      <text x="240" y="47" font-family="ui-monospace, 'Cascadia Code', 'SF Mono', Consolas, Menlo, 'DejaVu Sans Mono', monospace" font-size="10.5" font-weight="700" letter-spacing="3" fill="#fbbf24">CONQUISTA DESBLOQUEADA</text>
      <text x="240" y="72" font-family="'Segoe UI', system-ui, -apple-system, 'Helvetica Neue', Ubuntu, Arial, sans-serif" font-size="19" font-weight="700" fill="#fff">TCC defendido</text>
      <text x="240" y="91" font-family="'Segoe UI', system-ui, -apple-system, 'Helvetica Neue', Ubuntu, Arial, sans-serif" font-size="12.5" fill="#a1a1aa">Mind Health · tecnologia e saúde mental</text>
      <g transform="translate(694 61)"><circle r="17" fill="#1f1530" stroke="#4c2a7a"/><text y="5" text-anchor="middle" font-family="ui-monospace, 'Cascadia Code', 'SF Mono', Consolas, Menlo, 'DejaVu Sans Mono', monospace" font-size="13" font-weight="700" fill="#fde047">G</text></g>
      <text x="670" y="66" text-anchor="end" font-family="ui-monospace, 'Cascadia Code', 'SF Mono', Consolas, Menlo, 'DejaVu Sans Mono', monospace" font-size="15" font-weight="700" fill="#fff">100</text>
    </g><g class="toast" style="animation-delay:18s">
      <rect x="150" y="19" width="600" height="84" rx="42" fill="#120a1f" stroke="url(#edge)" stroke-width="1.8"/>
      <g clip-path="url(#pill)"><rect x="80" y="19" width="70" height="84" fill="url(#shineG)" transform="skewX(-20)" class="shine" style="animation-delay:18s"/></g>
      <circle cx="194" cy="61" r="30" fill="url(#gold)"/>
      <circle cx="194" cy="61" r="34" stroke="#fde047" stroke-width="2" stroke-dasharray="30 184" stroke-linecap="round" class="ring"/>
      <g transform="translate(194 62)"><g fill="#2a1a00">
      <path d="M-11-12H11V-4C11 5 5 9 0 9S-11 5-11-4Z"/>
      <path d="M-11-9H-17C-17-1-13 2-9 2M11-9H17C17-1 13 2 9 2" stroke="#2a1a00" stroke-width="3" fill="none"/>
      <rect x="-2.5" y="8" width="5" height="6"/><rect x="-9" y="13" width="18" height="4.5" rx="1.5"/></g></g>
      <text x="240" y="47" font-family="ui-monospace, 'Cascadia Code', 'SF Mono', Consolas, Menlo, 'DejaVu Sans Mono', monospace" font-size="10.5" font-weight="700" letter-spacing="3" fill="#fbbf24">CONQUISTA DESBLOQUEADA</text>
      <text x="240" y="72" font-family="'Segoe UI', system-ui, -apple-system, 'Helvetica Neue', Ubuntu, Arial, sans-serif" font-size="19" font-weight="700" fill="#fff">Fez um jogo inteiro com IA</text>
      <text x="240" y="91" font-family="'Segoe UI', system-ui, -apple-system, 'Helvetica Neue', Ubuntu, Arial, sans-serif" font-size="12.5" fill="#a1a1aa">Guns &amp; Dragons · C++ e SFML 3.0</text>
      <g transform="translate(694 61)"><circle r="17" fill="#1f1530" stroke="#4c2a7a"/><text y="5" text-anchor="middle" font-family="ui-monospace, 'Cascadia Code', 'SF Mono', Consolas, Menlo, 'DejaVu Sans Mono', monospace" font-size="13" font-weight="700" fill="#fde047">G</text></g>
      <text x="670" y="66" text-anchor="end" font-family="ui-monospace, 'Cascadia Code', 'SF Mono', Consolas, Menlo, 'DejaVu Sans Mono', monospace" font-size="15" font-weight="700" fill="#fff">100</text>
    </g><g class="toast" style="animation-delay:21.6s">
      <rect x="150" y="19" width="600" height="84" rx="42" fill="#120a1f" stroke="url(#edge)" stroke-width="1.8"/>
      <g clip-path="url(#pill)"><rect x="80" y="19" width="70" height="84" fill="url(#shineG)" transform="skewX(-20)" class="shine" style="animation-delay:21.6s"/></g>
      <circle cx="194" cy="61" r="30" fill="url(#gold)"/>
      <circle cx="194" cy="61" r="34" stroke="#fde047" stroke-width="2" stroke-dasharray="30 184" stroke-linecap="round" class="ring"/>
      <g transform="translate(194 62)"><g fill="#2a1a00">
      <path d="M-11-12H11V-4C11 5 5 9 0 9S-11 5-11-4Z"/>
      <path d="M-11-9H-17C-17-1-13 2-9 2M11-9H17C17-1 13 2 9 2" stroke="#2a1a00" stroke-width="3" fill="none"/>
      <rect x="-2.5" y="8" width="5" height="6"/><rect x="-9" y="13" width="18" height="4.5" rx="1.5"/></g></g>
      <text x="240" y="47" font-family="ui-monospace, 'Cascadia Code', 'SF Mono', Consolas, Menlo, 'DejaVu Sans Mono', monospace" font-size="10.5" font-weight="700" letter-spacing="3" fill="#fbbf24">CONQUISTA DESBLOQUEADA</text>
      <text x="240" y="72" font-family="'Segoe UI', system-ui, -apple-system, 'Helvetica Neue', Ubuntu, Arial, sans-serif" font-size="19" font-weight="700" fill="#fff">Montou o primeiro PC aos 12</text>
      <text x="240" y="91" font-family="'Segoe UI', system-ui, -apple-system, 'Helvetica Neue', Ubuntu, Arial, sans-serif" font-size="12.5" fill="#a1a1aa">e nunca mais desligou</text>
      <g transform="translate(694 61)"><circle r="17" fill="#1f1530" stroke="#4c2a7a"/><text y="5" text-anchor="middle" font-family="ui-monospace, 'Cascadia Code', 'SF Mono', Consolas, Menlo, 'DejaVu Sans Mono', monospace" font-size="13" font-weight="700" fill="#fde047">G</text></g>
      <text x="670" y="66" text-anchor="end" font-family="ui-monospace, 'Cascadia Code', 'SF Mono', Consolas, Menlo, 'DejaVu Sans Mono', monospace" font-size="15" font-weight="700" fill="#fff">100</text>
    </g><path d="M160 25L161.4 28.6L165 30L161.4 31.4L160 35L158.6 31.4L155 30L158.6 28.6Z" fill="#fde047" class="spark" style="animation-delay:0s"/><path d="M228 17L229.4 20.6L233 22L229.4 23.4L228 27L226.6 23.4L223 22L226.6 20.6Z" fill="#fde047" class="spark" style="animation-delay:0.3s"/><path d="M168 95L169.4 98.6L173 100L169.4 101.4L168 105L166.6 101.4L163 100L166.6 98.6Z" fill="#fde047" class="spark" style="animation-delay:0.6s"/><path d="M232 99L233.4 102.6L237 104L233.4 105.4L232 109L230.6 105.4L227 104L230.6 102.6Z" fill="#fde047" class="spark" style="animation-delay:0.9s"/><path d="M742 25L743.4 28.6L747 30L743.4 31.4L742 35L740.6 31.4L737 30L740.6 28.6Z" fill="#fde047" class="spark" style="animation-delay:1.2s"/></svg>