<svg xmlns="http://www.w3.org/2000/svg" width="900" height="440" viewBox="0 0 900 440" fill="none" role="img"><title>Robson Rodrigues — Full Stack Developer</title><style>@keyframes tw{0%,100%{opacity:.15}50%{opacity:1}}@keyframes blink{0%,49%{opacity:1}50%,100%{opacity:0}}@keyframes pulse{0%,100%{opacity:.55}50%{opacity:1}}@keyframes bob{0%,100%{transform:translateY(0)}50%{transform:translateY(-5px)}}.blink{animation:blink 1.1s steps(1) infinite}.gl-h{animation:gl-h 3.4s cubic-bezier(.55,0,1,.45) infinite}@keyframes gl-h{0%{transform:translateY(0);opacity:0}12%{opacity:.85}100%{transform:translateY(148px);opacity:1}}.name{animation:nm 6s infinite;transform-box:fill-box;transform-origin:center}@keyframes nm{0%,86%,90%,100%{transform:none}87%{transform:translateX(4px) skewX(-10deg)}88%{transform:translateX(-3px) skewX(6deg)}89%{transform:none}}.gA{animation:gA 6s infinite;mix-blend-mode:screen}.gB{animation:gB 6s infinite;mix-blend-mode:screen}@keyframes gA{0%,86%,92%,100%{opacity:0;transform:none}87%{opacity:.9;transform:translate(-6px,-2px)}89%{opacity:.8;transform:translate(5px,1px)}91%{opacity:.6;transform:translate(-2px,0)}}@keyframes gB{0%,86%,92%,100%{opacity:0;transform:none}87%{opacity:.9;transform:translate(6px,2px)}89%{opacity:.8;transform:translate(-5px,-1px)}91%{opacity:.6;transform:translate(3px,0)}}.halo{animation:pulse 3s ease-in-out infinite}.sub{animation:fl 5s infinite}@keyframes fl{0%,18%,21%,24%,60%,63%,100%{opacity:1}19%,22%,61%{opacity:.25}}.tag{opacity:0;animation:tag 12s infinite;transform-box:fill-box}@keyframes tag{0%{opacity:0;transform:translateY(6px)}5%,28%{opacity:1;transform:none}33%,100%{opacity:0;transform:translateY(-6px)}}.sun{animation:sun 4s ease-in-out infinite}@keyframes sun{0%,100%{opacity:.75}50%{opacity:1}}.scanband{animation:band 7s linear infinite}@keyframes band{0%{transform:translateY(-90px)}100%{transform:translateY(530px)}}.shoot{animation:shoot 9s ease-in 2s infinite;opacity:0}@keyframes shoot{0%{opacity:0;transform:translate(0,0)}2%{opacity:1}9%{opacity:0;transform:translate(-260px,120px)}100%{opacity:0;transform:translate(-260px,120px)}}.start{animation:blink 1.2s steps(1) infinite}.arrow{animation:bob 1.4s ease-in-out infinite}.pwbg{animation:pwbg 1.4s ease forwards}@keyframes pwbg{0%,40%{opacity:1}100%{opacity:0}}.pwl{transform-box:fill-box;transform-origin:center;animation:pwl 1.4s ease forwards}@keyframes pwl{0%{transform:scale(0,1);opacity:1}30%{transform:scale(1,1);opacity:1}55%{transform:scale(1,60);opacity:0}100%{opacity:0}}</style><defs>
    <clipPath id="frame"><rect width="900" height="440" rx="20"/></clipPath>
    <linearGradient id="sky" x1="0" y1="0" x2="0" y2="1"><stop offset="0" stop-color="#04010b"/><stop offset=".55" stop-color="#16052c"/><stop offset=".66" stop-color="#3a0b5c"/><stop offset=".665" stop-color="#0c0218"/><stop offset="1" stop-color="#000"/></linearGradient>
    <linearGradient id="sunG" x1="0" y1="0" x2="0" y2="1"><stop offset="0" stop-color="#fde68a"/><stop offset=".45" stop-color="#fb923c"/><stop offset="1" stop-color="#db2777"/></linearGradient>
    <linearGradient id="chrome" gradientUnits="userSpaceOnUse" x1="0" y1="80" x2="0" y2="126"><stop offset="0" stop-color="#a5f3fc"/><stop offset=".5" stop-color="#ffffff"/><stop offset=".52" stop-color="#5b21b6"/><stop offset=".68" stop-color="#c026d3"/><stop offset="1" stop-color="#fbcfe8"/></linearGradient>
    <radialGradient id="vig" cx=".5" cy=".5" r=".75"><stop offset=".55" stop-color="#000" stop-opacity="0"/><stop offset="1" stop-color="#000" stop-opacity=".75"/></radialGradient>
    <linearGradient id="bandG" x1="0" y1="0" x2="0" y2="1"><stop offset="0" stop-color="#fff" stop-opacity="0"/><stop offset=".5" stop-color="#fff" stop-opacity=".05"/><stop offset="1" stop-color="#fff" stop-opacity="0"/></linearGradient>
    <pattern id="scan" width="4" height="3" patternUnits="userSpaceOnUse"><rect width="4" height="1" fill="#000" opacity=".28"/></pattern>
    <mask id="sunMask"><rect x="0" y="0" width="900" height="292" fill="#fff"/><rect x="300" y="254" width="300" height="2" fill="#000"/><rect x="300" y="264" width="300" height="3.3" fill="#000"/><rect x="300" y="273" width="300" height="4.6" fill="#000"/><rect x="300" y="281" width="300" height="5.9" fill="#000"/><rect x="300" y="288" width="300" height="7.2" fill="#000"/></mask>
    <filter id="glow" x="-50%" y="-50%" width="200%" height="200%"><feGaussianBlur stdDeviation="3" result="b"/><feMerge><feMergeNode in="b"/><feMergeNode in="SourceGraphic"/></feMerge></filter><filter id="glowBig" x="-50%" y="-50%" width="200%" height="200%"><feGaussianBlur stdDeviation="9" result="b"/><feMerge><feMergeNode in="b"/><feMergeNode in="SourceGraphic"/></feMerge></filter><filter id="glowSun" x="-50%" y="-50%" width="200%" height="200%"><feGaussianBlur stdDeviation="18" result="b"/><feMerge><feMergeNode in="b"/><feMergeNode in="SourceGraphic"/></feMerge></filter>
  </defs>
  <g clip-path="url(#frame)">
    <rect width="900" height="440" fill="url(#sky)"/>
    <circle cx="403.46" cy="231.87" r="1.27" fill="#fff" style="animation:tw 4.4s ease-in-out -0.77s infinite"/><circle cx="245.91" cy="169.93" r="1.53" fill="#fff" style="animation:tw 4.11s ease-in-out -1.94s infinite"/><circle cx="793.85" cy="202.84" r="0.8" fill="#fff" style="animation:tw 3s ease-in-out -0.59s infinite"/><circle cx="617.95" cy="166.09" r="0.4" fill="#fff" style="animation:tw 4s ease-in-out -1.88s infinite"/><circle cx="46.09" cy="161.11" r="0.44" fill="#fff" style="animation:tw 5.35s ease-in-out -1.43s infinite"/><circle cx="167.12" cy="213.12" r="1.09" fill="#fff" style="animation:tw 2.25s ease-in-out -0.06s infinite"/><circle cx="758.42" cy="132.67" r="1.45" fill="#fff" style="animation:tw 2.69s ease-in-out -0.86s infinite"/><circle cx="33.7" cy="13.98" r="1.12" fill="#fff" style="animation:tw 3.8s ease-in-out -2.27s infinite"/><circle cx="581.12" cy="56.99" r="0.79" fill="#fff" style="animation:tw 2.98s ease-in-out -2.2s infinite"/><circle cx="457.2" cy="55.54" r="0.77" fill="#fff" style="animation:tw 5.43s ease-in-out -1.59s infinite"/><circle cx="593.87" cy="185.17" r="1.3" fill="#fff" style="animation:tw 2.3s ease-in-out -2.13s infinite"/><circle cx="849.36" cy="117.27" r="1.62" fill="#fff" style="animation:tw 2.35s ease-in-out -0.32s infinite"/><circle cx="14.26" cy="98.04" r="1.03" fill="#fff" style="animation:tw 2.44s ease-in-out -1.49s infinite"/><circle cx="69.82" cy="195.73" r="1.62" fill="#fff" style="animation:tw 5.6s ease-in-out -1.56s infinite"/><circle cx="161.66" cy="141.53" r="1.47" fill="#fff" style="animation:tw 4.83s ease-in-out -0.58s infinite"/><circle cx="506.52" cy="249.18" r="0.96" fill="#fff" style="animation:tw 5.98s ease-in-out -3.46s infinite"/><circle cx="536.62" cy="87.84" r="1.35" fill="#fff" style="animation:tw 3.35s ease-in-out -0.99s infinite"/><circle cx="758.81" cy="189.06" r="1.69" fill="#fff" style="animation:tw 3.8s ease-in-out -3.38s infinite"/><circle cx="490.69" cy="80.49" r="0.53" fill="#fff" style="animation:tw 3.73s ease-in-out -2.6s infinite"/><circle cx="707.35" cy="246.1" r="0.52" fill="#fff" style="animation:tw 3.25s ease-in-out -1.55s infinite"/><circle cx="116.98" cy="264.59" r="0.63" fill="#fff" style="animation:tw 5.29s ease-in-out -3.75s infinite"/><circle cx="200.86" cy="112.3" r="0.61" fill="#fff" style="animation:tw 4.8s ease-in-out -3.14s infinite"/><circle cx="186.26" cy="171.06" r="1.55" fill="#fff" style="animation:tw 3.34s ease-in-out -1.09s infinite"/><circle cx="353.65" cy="35.74" r="1.52" fill="#fff" style="animation:tw 5.17s ease-in-out -1.91s infinite"/><circle cx="663.68" cy="172.79" r="1.54" fill="#fff" style="animation:tw 2.04s ease-in-out -1.85s infinite"/><circle cx="543.54" cy="133.07" r="0.64" fill="#fff" style="animation:tw 2.84s ease-in-out -0.13s infinite"/><circle cx="637.53" cy="79.29" r="0.76" fill="#fff" style="animation:tw 4.82s ease-in-out -1.62s infinite"/><circle cx="198.81" cy="270.24" r="1.14" fill="#fff" style="animation:tw 2.12s ease-in-out -2.1s infinite"/><circle cx="153.75" cy="152.58" r="0.78" fill="#fff" style="animation:tw 2.66s ease-in-out -1.05s infinite"/><circle cx="376.52" cy="186.63" r="0.92" fill="#fff" style="animation:tw 3.74s ease-in-out -1.26s infinite"/><circle cx="294.59" cy="134.71" r="1.19" fill="#fff" style="animation:tw 5.58s ease-in-out -3.05s infinite"/><circle cx="211.87" cy="88.5" r="0.79" fill="#fff" style="animation:tw 4.36s ease-in-out -1.4s infinite"/><circle cx="198.8" cy="46.05" r="1.3" fill="#fff" style="animation:tw 4.68s ease-in-out -1.47s infinite"/><circle cx="282.42" cy="11.54" r="1.15" fill="#fff" style="animation:tw 2.5s ease-in-out -0.52s infinite"/><circle cx="341.94" cy="193.68" r="1.59" fill="#fff" style="animation:tw 3.93s ease-in-out -3.19s infinite"/><circle cx="138.73" cy="236" r="1.08" fill="#fff" style="animation:tw 3.76s ease-in-out -3.16s infinite"/><circle cx="405.09" cy="39.87" r="1.2" fill="#fff" style="animation:tw 5.58s ease-in-out -4.51s infinite"/><circle cx="350.68" cy="148.42" r="1.68" fill="#fff" style="animation:tw 2.83s ease-in-out -1.39s infinite"/><circle cx="758.87" cy="202.26" r="0.47" fill="#fff" style="animation:tw 5.44s ease-in-out -0.38s infinite"/><circle cx="455.89" cy="184.05" r="1.39" fill="#fff" style="animation:tw 2.68s ease-in-out -2.66s infinite"/><circle cx="568.45" cy="227.66" r="1.51" fill="#fff" style="animation:tw 5.26s ease-in-out -3.15s infinite"/><circle cx="402.22" cy="238.92" r="1.29" fill="#fff" style="animation:tw 3.4s ease-in-out -1.19s infinite"/><circle cx="563.35" cy="89.58" r="1.5" fill="#fff" style="animation:tw 5.75s ease-in-out -0.87s infinite"/><circle cx="17.97" cy="23.26" r="1.24" fill="#fff" style="animation:tw 3.46s ease-in-out -2.51s infinite"/><circle cx="791.52" cy="126.82" r="1.32" fill="#fff" style="animation:tw 5.82s ease-in-out -0.84s infinite"/><circle cx="125.22" cy="12.97" r="0.78" fill="#fff" style="animation:tw 3.09s ease-in-out -1.36s infinite"/><circle cx="644.73" cy="215.85" r="1.42" fill="#fff" style="animation:tw 4.28s ease-in-out -0.84s infinite"/><circle cx="466.02" cy="120.64" r="1.01" fill="#fff" style="animation:tw 4.67s ease-in-out -2.14s infinite"/><circle cx="298.73" cy="83.67" r="0.59" fill="#fff" style="animation:tw 3.7s ease-in-out -1.87s infinite"/><circle cx="477.5" cy="149.04" r="1.24" fill="#fff" style="animation:tw 3.07s ease-in-out -1.34s infinite"/><circle cx="3.39" cy="40.3" r="1.63" fill="#fff" style="animation:tw 2.54s ease-in-out -0.18s infinite"/><circle cx="387.36" cy="136.67" r="0.53" fill="#fff" style="animation:tw 5.48s ease-in-out -4.5s infinite"/><circle cx="333.55" cy="62.48" r="1.31" fill="#fff" style="animation:tw 2.23s ease-in-out -1.26s infinite"/><circle cx="869.75" cy="204.03" r="1.26" fill="#fff" style="animation:tw 2.38s ease-in-out -1.9s infinite"/><circle cx="724.36" cy="143.36" r="0.63" fill="#fff" style="animation:tw 4.2s ease-in-out -0.33s infinite"/><circle cx="53.62" cy="71.47" r="1.27" fill="#fff" style="animation:tw 2.38s ease-in-out -1.59s infinite"/><circle cx="878.98" cy="6.02" r="0.92" fill="#fff" style="animation:tw 4.24s ease-in-out -1.43s infinite"/><circle cx="749.79" cy="145.98" r="0.67" fill="#fff" style="animation:tw 3.14s ease-in-out -2.97s infinite"/><circle cx="239.63" cy="140.99" r="1.52" fill="#fff" style="animation:tw 5.81s ease-in-out -5.43s infinite"/><circle cx="511.68" cy="220.3" r="0.81" fill="#fff" style="animation:tw 4.74s ease-in-out -2.34s infinite"/><circle cx="494.76" cy="186.94" r="1.12" fill="#fff" style="animation:tw 5s ease-in-out -2.73s infinite"/><circle cx="885.88" cy="208.5" r="0.8" fill="#fff" style="animation:tw 5.87s ease-in-out -3.71s infinite"/><circle cx="778.22" cy="105.22" r="1.54" fill="#fff" style="animation:tw 4.67s ease-in-out -1.48s infinite"/><circle cx="371.92" cy="92.38" r="1.09" fill="#fff" style="animation:tw 5.52s ease-in-out -4.62s infinite"/><circle cx="780.96" cy="188.09" r="0.6" fill="#fff" style="animation:tw 4.47s ease-in-out -1.28s infinite"/><circle cx="437.98" cy="74.75" r="1.22" fill="#fff" style="animation:tw 5.85s ease-in-out -4.51s infinite"/><circle cx="643.35" cy="50.56" r="1.5" fill="#fff" style="animation:tw 4.95s ease-in-out -4.47s infinite"/><circle cx="424.19" cy="19.72" r="1.05" fill="#fff" style="animation:tw 4.18s ease-in-out -3.73s infinite"/><circle cx="379.01" cy="120.44" r="1.2" fill="#fff" style="animation:tw 4.7s ease-in-out -3.37s infinite"/><circle cx="38.99" cy="45.59" r="0.53" fill="#fff" style="animation:tw 4.07s ease-in-out -0.49s infinite"/><circle cx="745.36" cy="227.9" r="1.29" fill="#fff" style="animation:tw 3.5s ease-in-out -0.3s infinite"/><circle cx="243.24" cy="190.41" r="0.75" fill="#fff" style="animation:tw 2.13s ease-in-out -1.82s infinite"/><circle cx="818.05" cy="241.57" r="0.85" fill="#fff" style="animation:tw 4.5s ease-in-out -0.45s infinite"/><circle cx="215.82" cy="130.61" r="0.76" fill="#fff" style="animation:tw 4.51s ease-in-out -1.17s infinite"/><circle cx="467.14" cy="132.76" r="1.17" fill="#fff" style="animation:tw 4.88s ease-in-out -0.53s infinite"/><circle cx="620.18" cy="249.86" r="0.55" fill="#fff" style="animation:tw 5.13s ease-in-out -0.3s infinite"/><circle cx="306.47" cy="65.32" r="0.7" fill="#fff" style="animation:tw 2.13s ease-in-out -2.11s infinite"/><circle cx="756" cy="92.92" r="1.24" fill="#fff" style="animation:tw 4.32s ease-in-out -0.14s infinite"/><circle cx="718.75" cy="102.24" r="0.67" fill="#fff" style="animation:tw 4.94s ease-in-out -3.88s infinite"/><circle cx="124.3" cy="22.44" r="1.4" fill="#fff" style="animation:tw 4.02s ease-in-out -1.74s infinite"/><circle cx="712.91" cy="134.24" r="1.64" fill="#fff" style="animation:tw 5.48s ease-in-out -0.96s infinite"/><circle cx="496.91" cy="183.5" r="0.67" fill="#fff" style="animation:tw 2.58s ease-in-out -1.99s infinite"/><circle cx="121.5" cy="179.49" r="1.18" fill="#fff" style="animation:tw 2.97s ease-in-out -1.65s infinite"/><circle cx="829.83" cy="141.92" r="1.37" fill="#fff" style="animation:tw 2.82s ease-in-out -0.14s infinite"/><circle cx="522.33" cy="77.23" r="0.46" fill="#fff" style="animation:tw 5.83s ease-in-out -1.9s infinite"/><circle cx="684.9" cy="68.28" r="1.52" fill="#fff" style="animation:tw 4.85s ease-in-out -2.21s infinite"/><circle cx="578.39" cy="138.04" r="0.64" fill="#fff" style="animation:tw 2.73s ease-in-out -2.33s infinite"/><circle cx="122.71" cy="270.64" r="0.68" fill="#fff" style="animation:tw 2.35s ease-in-out -1.11s infinite"/><circle cx="557.67" cy="131.79" r="1.28" fill="#fff" style="animation:tw 4.03s ease-in-out -0.64s infinite"/><circle cx="746.31" cy="94.19" r="0.67" fill="#fff" style="animation:tw 5.92s ease-in-out -3.07s infinite"/><circle cx="401.37" cy="131.97" r="0.73" fill="#fff" style="animation:tw 5.05s ease-in-out -2.52s infinite"/><circle cx="775.52" cy="98.9" r="0.95" fill="#fff" style="animation:tw 2.14s ease-in-out -0.54s infinite"/><circle cx="36.88" cy="181.11" r="0.48" fill="#fff" style="animation:tw 4.02s ease-in-out -3.62s infinite"/><circle cx="592.13" cy="220.34" r="0.47" fill="#fff" style="animation:tw 5.05s ease-in-out -2.96s infinite"/><circle cx="433.48" cy="139.39" r="1.02" fill="#fff" style="animation:tw 4.2s ease-in-out -1.89s infinite"/>
    <g class="shoot"><line x1="780" y1="40" x2="840" y2="12" stroke="#fff" stroke-width="1.6" stroke-linecap="round"/></g>
    <g class="sun"><circle cx="450" cy="318" r="118" fill="url(#sunG)" filter="url(#glowSun)" mask="url(#sunMask)" opacity=".55"/></g>
    <circle cx="450" cy="318" r="112" fill="url(#sunG)" mask="url(#sunMask)"/>
    <polygon points="-20,292 22.22,270.4 64.44,266.35 106.67,248.75 148.89,247.68 191.11,228.41 233.33,248.23 275.56,260.07 317.78,274.31 360,292" fill="#1d0638" stroke="#7e22ce" stroke-width="1.4" stroke-linejoin="round"/>
    <polygon points="540,292 582.22,273.2 624.44,252.48 666.67,252.9 708.89,221.87 751.11,224.84 793.33,240.43 835.56,261.43 877.78,267.72 920,292" fill="#1d0638" stroke="#7e22ce" stroke-width="1.4" stroke-linejoin="round"/>
    <polygon points="-40,292 -7.78,275.59 24.44,266.44 56.67,264.97 88.89,251.52 121.11,260.99 153.33,260.05 185.56,266.91 217.78,276.61 250,292" fill="#0f0220" stroke="#c026d3" stroke-width="1.4" stroke-linejoin="round"/>
    <polygon points="650,292 682.22,275.33 714.44,266.48 746.67,256.54 778.89,247.75 811.11,242.54 843.33,257.6 875.56,270.98 907.78,275.24 940,292" fill="#0f0220" stroke="#c026d3" stroke-width="1.4" stroke-linejoin="round"/>
    <rect x="0" y="292" width="900" height="148" fill="#08010f"/>
    <clipPath id="floor-h"><rect x="0" y="292" width="900" height="148"/></clipPath>
    <g clip-path="url(#floor-h)"><line x1="324" y1="292" x2="-1393.2" y2="480" stroke="#e879f9" stroke-opacity=".55" stroke-width="1.1"/><line x1="331" y1="292" x2="-1290.8" y2="480" stroke="#e879f9" stroke-opacity=".55" stroke-width="1.1"/><line x1="338" y1="292" x2="-1188.4" y2="480" stroke="#e879f9" stroke-opacity=".55" stroke-width="1.1"/><line x1="345" y1="292" x2="-1086" y2="480" stroke="#e879f9" stroke-opacity=".55" stroke-width="1.1"/><line x1="352" y1="292" x2="-983.6" y2="480" stroke="#e879f9" stroke-opacity=".55" stroke-width="1.1"/><line x1="359" y1="292" x2="-881.2" y2="480" stroke="#e879f9" stroke-opacity=".55" stroke-width="1.1"/><line x1="366" y1="292" x2="-778.8" y2="480" stroke="#e879f9" stroke-opacity=".55" stroke-width="1.1"/><line x1="373" y1="292" x2="-676.4" y2="480" stroke="#e879f9" stroke-opacity=".55" stroke-width="1.1"/><line x1="380" y1="292" x2="-574" y2="480" stroke="#e879f9" stroke-opacity=".55" stroke-width="1.1"/><line x1="387" y1="292" x2="-471.6" y2="480" stroke="#e879f9" stroke-opacity=".55" stroke-width="1.1"/><line x1="394" y1="292" x2="-369.2" y2="480" stroke="#e879f9" stroke-opacity=".55" stroke-width="1.1"/><line x1="401" y1="292" x2="-266.8" y2="480" stroke="#e879f9" stroke-opacity=".55" stroke-width="1.1"/><line x1="408" y1="292" x2="-164.4" y2="480" stroke="#e879f9" stroke-opacity=".55" stroke-width="1.1"/><line x1="415" y1="292" x2="-62" y2="480" stroke="#e879f9" stroke-opacity=".55" stroke-width="1.1"/><line x1="422" y1="292" x2="40.4" y2="480" stroke="#e879f9" stroke-opacity=".55" stroke-width="1.1"/><line x1="429" y1="292" x2="142.8" y2="480" stroke="#e879f9" stroke-opacity=".55" stroke-width="1.1"/><line x1="436" y1="292" x2="245.2" y2="480" stroke="#e879f9" stroke-opacity=".55" stroke-width="1.1"/><line x1="443" y1="292" x2="347.6" y2="480" stroke="#e879f9" stroke-opacity=".55" stroke-width="1.1"/><line x1="450" y1="292" x2="450" y2="480" stroke="#e879f9" stroke-opacity=".55" stroke-width="1.1"/><line x1="457" y1="292" x2="552.4" y2="480" stroke="#e879f9" stroke-opacity=".55" stroke-width="1.1"/><line x1="464" y1="292" x2="654.8" y2="480" stroke="#e879f9" stroke-opacity=".55" stroke-width="1.1"/><line x1="471" y1="292" x2="757.2" y2="480" stroke="#e879f9" stroke-opacity=".55" stroke-width="1.1"/><line x1="478" y1="292" x2="859.6" y2="480" stroke="#e879f9" stroke-opacity=".55" stroke-width="1.1"/><line x1="485" y1="292" x2="962" y2="480" stroke="#e879f9" stroke-opacity=".55" stroke-width="1.1"/><line x1="492" y1="292" x2="1064.4" y2="480" stroke="#e879f9" stroke-opacity=".55" stroke-width="1.1"/><line x1="499" y1="292" x2="1166.8" y2="480" stroke="#e879f9" stroke-opacity=".55" stroke-width="1.1"/><line x1="506" y1="292" x2="1269.2" y2="480" stroke="#e879f9" stroke-opacity=".55" stroke-width="1.1"/><line x1="513" y1="292" x2="1371.6" y2="480" stroke="#e879f9" stroke-opacity=".55" stroke-width="1.1"/><line x1="520" y1="292" x2="1474" y2="480" stroke="#e879f9" stroke-opacity=".55" stroke-width="1.1"/><line x1="527" y1="292" x2="1576.4" y2="480" stroke="#e879f9" stroke-opacity=".55" stroke-width="1.1"/><line x1="534" y1="292" x2="1678.8" y2="480" stroke="#e879f9" stroke-opacity=".55" stroke-width="1.1"/><line x1="541" y1="292" x2="1781.2" y2="480" stroke="#e879f9" stroke-opacity=".55" stroke-width="1.1"/><line x1="548" y1="292" x2="1883.6" y2="480" stroke="#e879f9" stroke-opacity=".55" stroke-width="1.1"/><line x1="555" y1="292" x2="1986" y2="480" stroke="#e879f9" stroke-opacity=".55" stroke-width="1.1"/><line x1="562" y1="292" x2="2088.4" y2="480" stroke="#e879f9" stroke-opacity=".55" stroke-width="1.1"/><line x1="569" y1="292" x2="2190.8" y2="480" stroke="#e879f9" stroke-opacity=".55" stroke-width="1.1"/><line x1="576" y1="292" x2="2293.2" y2="480" stroke="#e879f9" stroke-opacity=".55" stroke-width="1.1"/><line x1="0" x2="900" y1="292" y2="292" stroke="#e879f9" stroke-width="1.4" class="gl-h" style="animation-delay:0s"/><line x1="0" x2="900" y1="292" y2="292" stroke="#e879f9" stroke-width="1.4" class="gl-h" style="animation-delay:-0.38s"/><line x1="0" x2="900" y1="292" y2="292" stroke="#e879f9" stroke-width="1.4" class="gl-h" style="animation-delay:-0.76s"/><line x1="0" x2="900" y1="292" y2="292" stroke="#e879f9" stroke-width="1.4" class="gl-h" style="animation-delay:-1.13s"/><line x1="0" x2="900" y1="292" y2="292" stroke="#e879f9" stroke-width="1.4" class="gl-h" style="animation-delay:-1.51s"/><line x1="0" x2="900" y1="292" y2="292" stroke="#e879f9" stroke-width="1.4" class="gl-h" style="animation-delay:-1.89s"/><line x1="0" x2="900" y1="292" y2="292" stroke="#e879f9" stroke-width="1.4" class="gl-h" style="animation-delay:-2.27s"/><line x1="0" x2="900" y1="292" y2="292" stroke="#e879f9" stroke-width="1.4" class="gl-h" style="animation-delay:-2.64s"/><line x1="0" x2="900" y1="292" y2="292" stroke="#e879f9" stroke-width="1.4" class="gl-h" style="animation-delay:-3.02s"/></g>
    <line x1="0" x2="900" y1="292" y2="292" stroke="#f0abfc" stroke-width="2" filter="url(#glow)"/>

    <g font-family="ui-monospace, 'Cascadia Code', 'SF Mono', Consolas, Menlo, 'DejaVu Sans Mono', monospace" font-size="13" letter-spacing="2" font-weight="700">
      <text x="28" y="34" fill="#ff2e97" class="blink">1UP</text><text x="70" y="34" fill="#fff">ROBSON</text>
      <text x="450" y="34" fill="#ff2e97" text-anchor="middle">HI-SCORE <tspan fill="#fff">∞</tspan></text>
      <text x="872" y="34" fill="#22d3ee" text-anchor="end">CREDIT <tspan fill="#fff">01</tspan></text>
    </g>

    <text x="450" y="124" text-anchor="middle" font-family="'Arial Black', 'Segoe UI Black', 'Helvetica Neue', Impact, sans-serif" font-weight="900" font-size="60" textLength="730" lengthAdjust="spacingAndGlyphs" fill="#c026d3" filter="url(#glowBig)" class="halo">ROBSON RODRIGUES</text>
    <text x="450" y="124" text-anchor="middle" font-family="'Arial Black', 'Segoe UI Black', 'Helvetica Neue', Impact, sans-serif" font-weight="900" font-size="60" textLength="730" lengthAdjust="spacingAndGlyphs" fill="#22d3ee" class="gA">ROBSON RODRIGUES</text>
    <text x="450" y="124" text-anchor="middle" font-family="'Arial Black', 'Segoe UI Black', 'Helvetica Neue', Impact, sans-serif" font-weight="900" font-size="60" textLength="730" lengthAdjust="spacingAndGlyphs" fill="#ff2e97" class="gB">ROBSON RODRIGUES</text>
    <text x="450" y="124" text-anchor="middle" font-family="'Arial Black', 'Segoe UI Black', 'Helvetica Neue', Impact, sans-serif" font-weight="900" font-size="60" textLength="730" lengthAdjust="spacingAndGlyphs" fill="url(#chrome)" stroke="#fff" stroke-opacity=".35" stroke-width=".8" class="name">ROBSON RODRIGUES</text>

    <text x="450" y="164" text-anchor="middle" font-family="'Segoe UI', system-ui, -apple-system, 'Helvetica Neue', Ubuntu, Arial, sans-serif" font-weight="700" font-size="19" letter-spacing="9" fill="#67e8f9" filter="url(#glow)" class="sub" textLength="470" lengthAdjust="spacing">FULL STACK DEVELOPER</text>
    <g font-family="ui-monospace, 'Cascadia Code', 'SF Mono', Consolas, Menlo, 'DejaVu Sans Mono', monospace" font-size="13" letter-spacing="2" fill="#f5d0fe" text-anchor="middle">
      <text x="450" y="196" class="tag" style="animation-delay:0s">NEXT.JS · REACT · TYPESCRIPT · NODE.JS · POSTGRESQL</text><text x="450" y="196" class="tag" style="animation-delay:4s">SITES E SISTEMAS QUE RODAM NO MUNDO REAL</text><text x="450" y="196" class="tag" style="animation-delay:8s">ADS — IFG  ·  BRASÍLIA-DF  ·  ABERTO A PROJETOS</text>
    </g>

    <g font-family="ui-monospace, 'Cascadia Code', 'SF Mono', Consolas, Menlo, 'DejaVu Sans Mono', monospace" font-weight="700" text-anchor="middle">
      <text x="450" y="398" font-size="17" letter-spacing="7" fill="#fde047" filter="url(#glow)" class="start">PRESS START</text>
      <text x="450" y="422" font-size="10" letter-spacing="4" fill="#f0abfc" class="arrow">▼ ROLE PARA JOGAR ▼</text>
    </g>

    <rect width="900" height="440" fill="url(#scan)"/>
    <rect width="900" height="90" fill="url(#bandG)" class="scanband"/>
    <rect width="900" height="440" fill="url(#vig)"/>
    <rect class="pwbg" width="900" height="440" fill="#000"/>
    <rect class="pwl" x="0" y="219" width="900" height="2" fill="#fff"/>
  </g>
  <rect x=".75" y=".75" width="898.5" height="438.5" rx="19.5" stroke="#7f2ccb" stroke-opacity=".7" stroke-width="1.5"/></svg>